<svg xmlns="http://www.w3.org/2000/svg" xmlns:xlink="http://www.w3.org/1999/xlink" width="500" zoomAndPan="magnify" viewBox="0 0 375 374.999991" height="500" preserveAspectRatio="xMidYMid meet" version="1.0"><defs><clipPath id="2683eec0ba"><path d="M 10 208 L 230 208 L 230 346.21875 L 10 346.21875 Z M 10 208 " clip-rule="nonzero"/></clipPath></defs><path fill="#f3f6f8" d="M 244.625 227.660156 C 243.089844 226.136719 241.835938 224.359375 240.929688 222.402344 L 238.132812 216.398438 C 235.066406 218.066406 231.707031 218.878906 228.414062 219.792969 L 227.921875 219.785156 L 225.664062 220.050781 L 221.988281 219.742188 C 221.582031 219.582031 221.792969 219.621094 221.363281 219.609375 C 217.265625 217.8125 219.242188 218.636719 215.4375 217.113281 C 215.507812 217.003906 215 216.820312 215 216.816406 C 212.140625 213.878906 213.652344 215.386719 210.4375 212.277344 C 210.269531 211.890625 210.386719 212.066406 210.082031 211.75 C 206.882812 206.300781 207.15625 201.867188 207.046875 195.539062 L 200.4375 195.230469 C 190.402344 194.757812 182.644531 186.238281 183.117188 176.191406 C 183.214844 174.035156 183.699219 171.917969 184.539062 169.925781 L 187.128906 163.832031 L 181.21875 160.859375 C 172.238281 156.347656 168.617188 145.40625 173.128906 136.421875 C 174.101562 134.492188 175.402344 132.75 176.980469 131.273438 L 181.824219 126.757812 L 177.628906 121.640625 C 171.265625 113.859375 172.40625 102.390625 180.175781 96.019531 C 181.84375 94.652344 183.746094 93.589844 185.785156 92.886719 L 192.050781 90.734375 L 190.300781 84.347656 C 187.640625 74.652344 193.347656 64.636719 203.035156 61.984375 C 205.121094 61.410156 207.289062 61.214844 209.4375 61.402344 L 216.027344 61.984375 L 217.027344 55.441406 C 218.546875 45.5 227.824219 38.671875 237.757812 40.191406 C 239.890625 40.515625 241.953125 41.21875 243.839844 42.269531 L 249.625 45.480469 L 253.199219 39.90625 C 258.625 31.445312 269.878906 28.980469 278.335938 34.410156 C 280.148438 35.578125 281.746094 37.058594 283.042969 38.785156 L 287.023438 44.074219 L 292.554688 40.433594 C 300.949219 34.917969 312.226562 37.25 317.75 45.648438 C 318.9375 47.453125 319.789062 49.457031 320.28125 51.558594 L 321.761719 58.011719 L 328.296875 56.9375 C 338.210938 55.308594 347.570312 62.03125 349.191406 71.957031 C 349.542969 74.089844 349.511719 76.261719 349.101562 78.382812 L 347.832031 84.882812 L 354.238281 86.558594 C 363.957031 89.109375 369.773438 99.054688 367.226562 108.78125 C 366.679688 110.871094 365.765625 112.847656 364.527344 114.613281 L 360.730469 120.039062 L 365.890625 124.179688 C 373.734375 130.460938 375.003906 141.914062 368.726562 149.765625 C 367.378906 151.453125 365.738281 152.882812 363.886719 153.992188 L 358.214844 157.40625 L 361.253906 163.289062 C 365.863281 172.21875 362.371094 183.199219 353.4375 187.816406 C 351.519531 188.804688 349.441406 189.449219 347.300781 189.714844 L 340.730469 190.515625 L 341.117188 197.125 C 341.691406 207.164062 334.035156 215.773438 324.007812 216.355469 C 321.847656 216.476562 319.691406 216.222656 317.625 215.585938 L 311.292969 213.648438 L 308.957031 219.84375 C 305.414062 229.25 294.914062 233.996094 285.515625 230.445312 C 283.496094 229.683594 281.628906 228.570312 279.996094 227.152344 L 275.007812 222.804688 L 270.355469 227.515625 C 263.289062 234.660156 251.765625 234.730469 244.625 227.660156 Z M 285.164062 120.96875 L 286.117188 121.367188 L 285.492188 121.082031 Z M 267.179688 162.027344 C 281.558594 163.910156 294.496094 156.683594 300.164062 143.191406 C 301.757812 139.386719 301.648438 138.328125 302.289062 134.171875 C 300.566406 133.046875 298.714844 132.097656 297.109375 130.796875 C 295.519531 129.507812 294.578125 127.378906 293.0625 125.976562 C 288.472656 121.726562 283.097656 119.71875 276.964844 119.585938 C 268.128906 120.382812 263.472656 123.449219 258.570312 130.730469 C 257.863281 131.785156 256.402344 135.117188 256.214844 136.390625 C 255.867188 138.753906 255.675781 141.144531 255.707031 143.53125 C 255.71875 144.730469 256.128906 145.886719 256.34375 147.066406 C 256.871094 149.027344 257.839844 150.890625 258.210938 152.894531 C 258.332031 153.523438 258.164062 154.179688 258.222656 154.820312 C 258.285156 155.457031 258.570312 156.066406 258.578125 156.707031 C 258.582031 157.496094 258.242188 158.269531 258.25 159.066406 C 259.523438 159.757812 258.601562 159.277344 261.089844 160.347656 L 261.269531 160.445312 C 265.175781 161.699219 263.207031 161.179688 267.179688 162.027344 " fill-opacity="1" fill-rule="nonzero"/><path fill="#ebc817" d="M 225.347656 201.847656 L 224.945312 178.152344 L 201.289062 177.042969 L 210.550781 155.230469 L 189.386719 144.589844 L 206.714844 128.429688 L 191.707031 110.101562 L 214.101562 102.390625 L 207.84375 79.535156 L 231.4375 81.609375 L 235.011719 58.183594 L 255.726562 69.679688 L 268.511719 49.734375 L 282.753906 68.660156 L 302.550781 55.644531 L 307.867188 78.738281 L 331.242188 74.902344 L 326.710938 98.164062 L 349.625 104.167969 L 336.035156 123.574219 L 354.523438 138.382812 L 334.21875 150.582031 L 345.085938 171.636719 L 321.578125 174.519531 L 322.949219 198.179688 L 300.300781 191.242188 L 291.9375 213.414062 L 274.070312 197.859375 L 257.414062 214.707031 L 247.414062 193.230469 Z M 240.382812 156.527344 L 239.957031 155.527344 C 239.566406 154.304688 239.117188 153.101562 238.785156 151.859375 C 236.5625 143.511719 237.144531 134.636719 240.320312 126.609375 C 248.5625 106.046875 271.90625 96.058594 292.460938 104.300781 C 299.21875 107.214844 305.171875 111.488281 309.59375 117.441406 L 309.8125 117.757812 C 305.324219 107.257812 298.179688 99.917969 287.578125 95.507812 C 267.027344 87.257812 243.683594 97.25 235.441406 117.8125 C 230.367188 131.457031 232.042969 144.609375 240.382812 156.527344 Z M 253.890625 177.066406 C 229 167.074219 216.90625 138.785156 226.886719 113.875 C 236.871094 88.964844 265.144531 76.867188 290.042969 86.855469 C 314.9375 96.84375 327.027344 125.136719 317.046875 150.042969 C 307.0625 174.957031 278.785156 187.050781 253.890625 177.066406 Z M 251.730469 182.453125 C 279.601562 193.632812 311.253906 180.097656 322.425781 152.207031 C 333.601562 124.320312 320.070312 92.648438 292.199219 81.46875 C 264.332031 70.289062 232.679688 83.828125 221.503906 111.710938 C 210.324219 139.601562 223.859375 171.269531 251.730469 182.453125 " fill-opacity="1" fill-rule="nonzero"/><path fill="#f3f6f8" d="M 144.449219 305.769531 C 142.5 305.75 140.546875 305.722656 138.59375 305.578125 L 70.648438 305.484375 C 31.628906 305.484375 -0.00390625 273.835938 -0.00390625 234.796875 L 0.00390625 234.324219 C 0.921875 204.871094 18.6875 179.035156 46.355469 168.523438 C 61.859375 117.492188 114.257812 89.300781 165.777344 100.425781 C 190.84375 105.835938 212.566406 121.234375 228.003906 141.460938 C 230.503906 140.914062 233.089844 140.667969 235.652344 140.667969 C 263.78125 141.199219 289.371094 160.339844 295.09375 188.417969 C 298.765625 189.4375 302.566406 190.058594 306.101562 191.480469 C 320.921875 197.457031 337.082031 209.488281 342.027344 225.511719 L 346 244.191406 C 346.109375 246.09375 346.097656 245.34375 346.097656 246.445312 C 346.097656 279.492188 318.007812 305.769531 283.921875 305.769531 L 150.375 305.59375 L 149.917969 305.636719 Z M 140.128906 269.171875 C 142.941406 269.441406 145.8125 269.457031 148.632812 269.179688 L 149.527344 269.179688 L 283.941406 269.363281 C 301.816406 268.6875 314.652344 253.941406 307.457031 237.019531 C 305.820312 233.652344 301.824219 229.929688 296.550781 227.140625 L 294.707031 226.285156 C 291.136719 232.984375 293.128906 229.761719 288.71875 235.960938 L 256.800781 220.015625 C 258.054688 215.386719 259.03125 211.296875 259.710938 207.941406 C 262.859375 191.851562 255.304688 183.089844 240.65625 177.578125 C 239.183594 177.121094 237.582031 177.269531 236.046875 177.113281 C 232.875 177.328125 229.757812 177.988281 226.730469 178.921875 C 220.390625 181.449219 214.929688 184.660156 210.058594 189.933594 L 180.421875 169.460938 C 183.097656 163.996094 186.921875 159.210938 191.085938 154.8125 C 180.867188 144.230469 166.613281 136.082031 151.675781 134.964844 C 147.375 134.640625 143.050781 134.714844 138.738281 134.589844 C 122.300781 136.082031 106.96875 142.152344 95.390625 154.242188 C 92.773438 156.980469 90.726562 160.21875 88.394531 163.207031 C 94.46875 164.996094 91.210938 163.90625 98.125 166.59375 C 102.132812 168.289062 105.9375 170.234375 109.511719 172.460938 L 94.757812 205.375 C 86.402344 202.914062 79.484375 201.5625 73.851562 201.070312 C 70.199219 200.753906 67.664062 200.828125 65.804688 201.097656 C 65.453125 201.144531 64.003906 201.417969 63.777344 201.453125 C 44.160156 204.476562 32.253906 226.605469 37.925781 244.992188 C 42.539062 259.953125 55.535156 268.316406 70.671875 269.074219 L 139.21875 269.171875 L 140.128906 269.171875 " fill-opacity="1" fill-rule="nonzero"/><path fill="#6ea4dd" d="M 144.40625 287.570312 C 142.667969 287.53125 140.929688 287.550781 139.195312 287.375 L 70.65625 287.285156 C 41.683594 287.285156 18.199219 263.785156 18.199219 234.796875 C 18.808594 211.234375 32.703125 192.242188 55.050781 184.671875 C 56.949219 184.035156 59.046875 183.773438 60.941406 183.476562 C 62.828125 183.175781 73.753906 180.207031 99.902344 187.914062 C 83.617188 177.769531 62.863281 176.679688 63.050781 175.972656 C 74.535156 132.792969 118.222656 109.007812 162.027344 118.238281 C 187.121094 123.523438 205.859375 141.179688 216.5625 156.433594 C 216.835938 156.824219 202.355469 166.238281 196.707031 177.574219 C 205.660156 167.894531 216.203125 163.53125 220.007812 162.011719 C 223.816406 160.503906 230.335938 159.210938 235.65625 158.875 C 259.429688 158.875 278.703125 178.160156 278.703125 201.949219 C 278.703125 201.949219 278.578125 204.457031 278.515625 205.722656 C 278.453125 206.984375 277.375 213.691406 274.363281 224.789062 C 282.300781 214.5625 282.765625 205.667969 283.140625 205.621094 C 294.824219 204.210938 316.347656 213.699219 323.820312 229.050781 C 325.894531 233.3125 326.714844 237.648438 327.6875 242.25 L 327.6875 242.3125 L 327.910156 242.339844 C 327.769531 243.710938 327.832031 245.082031 327.910156 246.449219 C 327.910156 269.160156 308.226562 287.570312 283.949219 287.570312 L 149.507812 287.386719 L 148.8125 287.460938 L 144.40625 287.570312 " fill-opacity="1" fill-rule="nonzero"/><g clip-path="url(#2683eec0ba)"><path fill="#f3f6f8" d="M 185.683594 346.21875 L 107.164062 346.117188 C 105.589844 346.1875 106.691406 346.144531 103.859375 346.210938 L 103.480469 346.1875 L 103.09375 346.214844 C 100.988281 346.183594 102.066406 346.214844 99.859375 346.105469 L 59.871094 346.050781 L 59.433594 346.050781 C 31.835938 345.355469 11.933594 324.601562 10.769531 297.351562 C 10.753906 296.824219 10.765625 296.296875 10.792969 295.769531 C 11.566406 277.257812 22.410156 259.855469 39.550781 252.257812 C 51.589844 219.402344 83.664062 204.363281 117.140625 210.242188 C 117.464844 210.304688 117.789062 210.375 118.113281 210.453125 C 132.789062 213.902344 146.296875 222.316406 155.917969 233.953125 C 157.027344 233.894531 156.4375 233.90625 157.675781 233.90625 C 175.878906 234.097656 192.628906 246.101562 198.398438 263.410156 C 209.949219 266.90625 218.886719 274.480469 225.125 284.660156 C 225.453125 285.25 225.746094 285.855469 226.003906 286.476562 C 227.636719 289.976562 228.46875 293.769531 229.300781 297.515625 C 229.972656 299.347656 229.839844 301.351562 229.765625 303.28125 L 229.8125 303.03125 C 229.175781 329.203125 211.183594 344.085938 186.136719 346.21875 Z M 150.105469 271.855469 L 149.867188 272.28125 L 150.179688 271.914062 Z M 164.425781 277.972656 L 164.480469 278.042969 L 164.425781 277.679688 Z M 106.429688 309.707031 L 185.707031 309.8125 C 189.65625 309.300781 187.445312 309.894531 192.105469 307.316406 C 193.648438 304.382812 193.421875 305.773438 193.390625 303.304688 C 190.914062 306.191406 187.183594 308.164062 183.460938 308.867188 C 181.695312 309.199219 179.867188 309.011719 178.066406 309.085938 L 175.347656 308.570312 C 165.636719 305.976562 159.875 295.996094 162.472656 286.28125 C 163.488281 282.621094 164.613281 279.003906 164.082031 275.191406 L 160.496094 271.023438 L 157.699219 270.328125 C 153.613281 270.644531 150.109375 272.910156 147.320312 275.789062 C 141.617188 281.699219 132.667969 283.046875 125.472656 279.085938 C 116.671875 274.242188 113.464844 263.167969 118.3125 254.359375 C 120.167969 251.207031 119.335938 252.402344 120.621094 250.644531 C 115.417969 246.726562 109.238281 245.46875 102.894531 245.148438 C 95.78125 245.234375 88.589844 247.191406 82.976562 251.710938 C 85.074219 252.730469 83.972656 252.15625 86.269531 253.484375 C 93.492188 257.671875 96.933594 266.234375 94.632812 274.261719 C 91.859375 283.921875 81.785156 289.507812 72.125 286.734375 C 67.839844 285.503906 63.445312 284.386719 58.960938 284.316406 C 57.878906 284.371094 58.648438 284.3125 56.671875 284.636719 L 56.550781 284.582031 C 49.8125 286.273438 47.789062 291.46875 47.128906 297.753906 C 47.363281 304.617188 53.410156 309.449219 59.917969 309.640625 L 100.347656 309.699219 L 103.898438 309.796875 Z M 47.09375 296.648438 L 47.121094 297.519531 L 47.136719 296.433594 Z M 185.273438 309.816406 L 185.320312 309.863281 L 185.707031 309.8125 L 185.273438 309.816406 " fill-opacity="1" fill-rule="nonzero"/></g><path fill="#aed6f2" d="M 103.394531 328.019531 C 102.371094 327.996094 101.347656 328.007812 100.324219 327.90625 L 59.890625 327.847656 C 42.804688 327.847656 28.953125 313.992188 28.953125 296.894531 C 29.3125 282.996094 37.507812 271.792969 50.691406 267.328125 C 51.808594 266.949219 53.046875 266.796875 54.164062 266.617188 C 55.277344 266.441406 61.722656 264.695312 77.144531 269.238281 C 67.535156 263.257812 55.296875 262.609375 55.410156 262.195312 C 62.183594 236.726562 87.953125 222.695312 113.789062 228.136719 C 128.589844 231.257812 139.640625 241.675781 145.957031 250.671875 C 146.117188 250.902344 137.578125 256.453125 134.242188 263.140625 C 139.523438 257.429688 145.746094 254.855469 147.988281 253.960938 C 150.234375 253.070312 154.082031 252.308594 157.21875 252.105469 C 171.246094 252.105469 182.613281 263.484375 182.613281 277.515625 C 182.613281 277.515625 182.535156 278.996094 182.496094 279.746094 C 182.460938 280.484375 181.828125 284.441406 180.046875 290.988281 C 184.734375 284.957031 185.007812 279.707031 185.226562 279.679688 C 192.117188 278.851562 204.816406 284.449219 209.21875 293.503906 C 210.445312 296.019531 210.929688 298.574219 211.5 301.285156 L 211.503906 301.324219 L 211.632812 301.34375 C 211.546875 302.148438 211.589844 302.957031 211.632812 303.765625 C 211.632812 317.160156 200.027344 328.019531 185.703125 328.019531 L 106.40625 327.914062 L 105.992188 327.953125 L 103.394531 328.019531 " fill-opacity="1" fill-rule="nonzero"/></svg>