<svg xmlns="http://www.w3.org/2000/svg" xmlns:xlink="http://www.w3.org/1999/xlink" width="500" zoomAndPan="magnify" viewBox="0 0 375 374.999991" height="500" preserveAspectRatio="xMidYMid meet" version="1.0"><defs><clipPath id="df52de0eaa"><path d="M 29.863281 77 L 140 77 L 140 188 L 29.863281 188 Z M 29.863281 77 " clip-rule="nonzero"/></clipPath><clipPath id="497b6f158d"><path d="M 227 55 L 359.863281 55 L 359.863281 188 L 227 188 Z M 227 55 " clip-rule="nonzero"/></clipPath><clipPath id="1c14a84144"><path d="M 253 55 L 359.863281 55 L 359.863281 185 L 253 185 Z M 253 55 " clip-rule="nonzero"/></clipPath><clipPath id="655d7b816e"><path d="M 84 198 L 239 198 L 239 352.375 L 84 352.375 Z M 84 198 " clip-rule="nonzero"/></clipPath><clipPath id="d416868dab"><path d="M 282 225 L 359.863281 225 L 359.863281 303 L 282 303 Z M 282 225 " clip-rule="nonzero"/></clipPath><clipPath id="890e4dbe87"><path d="M 294 225 L 359.863281 225 L 359.863281 303 L 294 303 Z M 294 225 " clip-rule="nonzero"/></clipPath><clipPath id="f56bbf0868"><path d="M 29.863281 280 L 52 280 L 52 303 L 29.863281 303 Z M 29.863281 280 " clip-rule="nonzero"/></clipPath><clipPath id="65ae574937"><path d="M 95 22.375 L 118 22.375 L 118 45 L 95 45 Z M 95 22.375 " clip-rule="nonzero"/></clipPath><clipPath id="1c2862400a"><path d="M 96 22.375 L 118 22.375 L 118 44 L 96 44 Z M 96 22.375 " clip-rule="nonzero"/></clipPath></defs><g clip-path="url(#df52de0eaa)"><path fill="#29b6f6" d="M 139.863281 132.375 C 139.863281 134.175781 139.777344 135.972656 139.601562 137.765625 C 139.421875 139.558594 139.160156 141.335938 138.808594 143.105469 C 138.457031 144.871094 138.019531 146.617188 137.496094 148.339844 C 136.972656 150.0625 136.367188 151.757812 135.679688 153.421875 C 134.988281 155.085938 134.21875 156.710938 133.371094 158.300781 C 132.519531 159.890625 131.597656 161.433594 130.59375 162.929688 C 129.59375 164.429688 128.523438 165.875 127.378906 167.265625 C 126.238281 168.660156 125.027344 169.992188 123.753906 171.265625 C 122.480469 172.539062 121.148438 173.746094 119.757812 174.890625 C 118.363281 176.03125 116.917969 177.105469 115.421875 178.105469 C 113.921875 179.105469 112.378906 180.03125 110.792969 180.878906 C 109.203125 181.730469 107.578125 182.5 105.914062 183.1875 C 104.25 183.878906 102.554688 184.484375 100.832031 185.007812 C 99.105469 185.527344 97.363281 185.964844 95.59375 186.316406 C 93.828125 186.667969 92.046875 186.933594 90.253906 187.109375 C 88.464844 187.285156 86.664062 187.375 84.863281 187.375 C 83.0625 187.375 81.265625 187.285156 79.472656 187.109375 C 77.679688 186.933594 75.902344 186.667969 74.132812 186.316406 C 72.367188 185.964844 70.621094 185.527344 68.898438 185.007812 C 67.175781 184.484375 65.480469 183.878906 63.816406 183.1875 C 62.152344 182.5 60.527344 181.730469 58.9375 180.878906 C 57.347656 180.03125 55.804688 179.105469 54.308594 178.105469 C 52.8125 177.105469 51.367188 176.03125 49.972656 174.890625 C 48.582031 173.746094 47.246094 172.539062 45.972656 171.265625 C 44.699219 169.992188 43.492188 168.660156 42.347656 167.265625 C 41.207031 165.875 40.132812 164.429688 39.132812 162.929688 C 38.132812 161.433594 37.207031 159.890625 36.359375 158.300781 C 35.511719 156.710938 34.742188 155.085938 34.050781 153.421875 C 33.363281 151.757812 32.757812 150.0625 32.234375 148.339844 C 31.710938 146.617188 31.273438 144.871094 30.921875 143.105469 C 30.570312 141.335938 30.304688 139.558594 30.128906 137.765625 C 29.953125 135.972656 29.863281 134.175781 29.863281 132.375 C 29.863281 130.574219 29.953125 128.777344 30.128906 126.984375 C 30.304688 125.191406 30.570312 123.410156 30.921875 121.644531 C 31.273438 119.878906 31.710938 118.132812 32.234375 116.410156 C 32.757812 114.683594 33.363281 112.992188 34.050781 111.328125 C 34.742188 109.664062 35.511719 108.035156 36.359375 106.449219 C 37.207031 104.859375 38.132812 103.316406 39.132812 101.816406 C 40.132812 100.320312 41.207031 98.875 42.347656 97.484375 C 43.492188 96.089844 44.699219 94.757812 45.972656 93.484375 C 47.246094 92.210938 48.582031 91 49.972656 89.859375 C 51.367188 88.714844 52.8125 87.644531 54.308594 86.644531 C 55.804688 85.644531 57.347656 84.71875 58.9375 83.867188 C 60.527344 83.019531 62.152344 82.25 63.816406 81.5625 C 65.480469 80.871094 67.175781 80.265625 68.898438 79.742188 C 70.621094 79.21875 72.367188 78.78125 74.132812 78.429688 C 75.902344 78.078125 77.679688 77.816406 79.472656 77.640625 C 81.265625 77.460938 83.0625 77.375 84.863281 77.375 C 86.664062 77.375 88.464844 77.460938 90.253906 77.640625 C 92.046875 77.816406 93.828125 78.078125 95.59375 78.429688 C 97.363281 78.78125 99.105469 79.21875 100.832031 79.742188 C 102.554688 80.265625 104.25 80.871094 105.914062 81.5625 C 107.578125 82.25 109.203125 83.019531 110.792969 83.867188 C 112.378906 84.71875 113.921875 85.644531 115.421875 86.644531 C 116.917969 87.644531 118.363281 88.714844 119.757812 89.859375 C 121.148438 91 122.480469 92.210938 123.753906 93.484375 C 125.027344 94.757812 126.238281 96.089844 127.378906 97.484375 C 128.523438 98.875 129.59375 100.320312 130.59375 101.816406 C 131.597656 103.316406 132.519531 104.859375 133.371094 106.449219 C 134.21875 108.035156 134.988281 109.664062 135.679688 111.328125 C 136.367188 112.992188 136.972656 114.683594 137.496094 116.410156 C 138.019531 118.132812 138.457031 119.878906 138.808594 121.644531 C 139.160156 123.410156 139.421875 125.191406 139.601562 126.984375 C 139.777344 128.777344 139.863281 130.574219 139.863281 132.375 Z M 139.863281 132.375 " fill-opacity="1" fill-rule="nonzero"/></g><path fill="#03a9f4" d="M 49.929688 89.910156 C 59.433594 82.078125 71.605469 77.375 84.863281 77.375 C 115.21875 77.375 139.863281 102.019531 139.863281 132.375 C 139.863281 158.273438 121.921875 180.015625 97.800781 185.839844 C 110.050781 175.746094 117.863281 160.46875 117.863281 143.375 C 117.863281 113.019531 93.21875 88.375 62.863281 88.375 C 58.410156 88.375 54.074219 88.90625 49.929688 89.910156 Z M 49.929688 89.910156 " fill-opacity="1" fill-rule="evenodd"/><g clip-path="url(#497b6f158d)"><path fill="#29b6f6" d="M 359.863281 121.375 C 359.863281 122.453125 359.839844 123.535156 359.785156 124.613281 C 359.730469 125.691406 359.652344 126.769531 359.546875 127.84375 C 359.441406 128.917969 359.308594 129.988281 359.148438 131.058594 C 358.992188 132.128906 358.808594 133.191406 358.597656 134.25 C 358.386719 135.308594 358.148438 136.363281 357.886719 137.410156 C 357.625 138.457031 357.335938 139.5 357.023438 140.53125 C 356.710938 141.566406 356.371094 142.59375 356.007812 143.609375 C 355.644531 144.625 355.253906 145.632812 354.839844 146.632812 C 354.425781 147.628906 353.988281 148.617188 353.527344 149.59375 C 353.066406 150.570312 352.582031 151.535156 352.070312 152.488281 C 351.5625 153.4375 351.03125 154.378906 350.476562 155.304688 C 349.917969 156.230469 349.339844 157.144531 348.742188 158.042969 C 348.140625 158.941406 347.519531 159.824219 346.875 160.691406 C 346.234375 161.558594 345.570312 162.410156 344.882812 163.246094 C 344.199219 164.078125 343.492188 164.898438 342.765625 165.699219 C 342.042969 166.496094 341.296875 167.28125 340.535156 168.042969 C 339.769531 168.808594 338.988281 169.550781 338.1875 170.277344 C 337.386719 171.003906 336.570312 171.707031 335.734375 172.394531 C 334.898438 173.078125 334.046875 173.742188 333.179688 174.386719 C 332.3125 175.03125 331.429688 175.652344 330.53125 176.25 C 329.632812 176.851562 328.722656 177.429688 327.796875 177.984375 C 326.867188 178.539062 325.929688 179.070312 324.976562 179.582031 C 324.023438 180.089844 323.058594 180.574219 322.082031 181.039062 C 321.105469 181.5 320.121094 181.9375 319.121094 182.351562 C 318.125 182.765625 317.117188 183.152344 316.097656 183.515625 C 315.082031 183.878906 314.058594 184.21875 313.023438 184.53125 C 311.988281 184.847656 310.949219 185.132812 309.902344 185.394531 C 308.855469 185.660156 307.800781 185.894531 306.742188 186.105469 C 305.679688 186.316406 304.617188 186.5 303.550781 186.660156 C 302.480469 186.820312 301.410156 186.949219 300.332031 187.054688 C 299.257812 187.164062 298.183594 187.242188 297.101562 187.292969 C 296.023438 187.347656 294.945312 187.375 293.863281 187.375 C 292.785156 187.375 291.703125 187.347656 290.625 187.292969 C 289.546875 187.242188 288.46875 187.164062 287.394531 187.054688 C 286.320312 186.949219 285.25 186.820312 284.179688 186.660156 C 283.113281 186.5 282.046875 186.316406 280.988281 186.105469 C 279.929688 185.894531 278.875 185.660156 277.828125 185.394531 C 276.78125 185.132812 275.738281 184.847656 274.707031 184.53125 C 273.671875 184.21875 272.648438 183.878906 271.628906 183.515625 C 270.613281 183.152344 269.605469 182.765625 268.609375 182.351562 C 267.609375 181.9375 266.621094 181.5 265.644531 181.039062 C 264.667969 180.574219 263.707031 180.089844 262.753906 179.582031 C 261.800781 179.070312 260.859375 178.539062 259.933594 177.984375 C 259.007812 177.429688 258.09375 176.851562 257.195312 176.25 C 256.300781 175.652344 255.417969 175.03125 254.546875 174.386719 C 253.679688 173.742188 252.828125 173.078125 251.996094 172.394531 C 251.160156 171.707031 250.34375 171.003906 249.542969 170.277344 C 248.742188 169.550781 247.960938 168.808594 247.195312 168.042969 C 246.433594 167.28125 245.6875 166.496094 244.960938 165.695312 C 244.238281 164.898438 243.53125 164.078125 242.847656 163.246094 C 242.160156 162.410156 241.496094 161.558594 240.851562 160.691406 C 240.210938 159.824219 239.585938 158.941406 238.988281 158.042969 C 238.386719 157.144531 237.808594 156.230469 237.253906 155.304688 C 236.699219 154.378906 236.167969 153.4375 235.65625 152.488281 C 235.148438 151.535156 234.664062 150.570312 234.203125 149.59375 C 233.738281 148.617188 233.300781 147.628906 232.886719 146.632812 C 232.476562 145.632812 232.085938 144.625 231.722656 143.609375 C 231.359375 142.59375 231.019531 141.566406 230.707031 140.53125 C 230.394531 139.5 230.105469 138.457031 229.84375 137.410156 C 229.582031 136.363281 229.34375 135.308594 229.132812 134.25 C 228.921875 133.191406 228.738281 132.128906 228.578125 131.058594 C 228.421875 129.988281 228.289062 128.917969 228.183594 127.84375 C 228.078125 126.769531 227.996094 125.691406 227.945312 124.613281 C 227.890625 123.535156 227.863281 122.453125 227.863281 121.375 C 227.863281 120.292969 227.890625 119.214844 227.945312 118.136719 C 227.996094 117.058594 228.078125 115.980469 228.183594 114.90625 C 228.289062 113.832031 228.421875 112.757812 228.578125 111.691406 C 228.738281 110.621094 228.921875 109.558594 229.132812 108.5 C 229.34375 107.4375 229.582031 106.386719 229.84375 105.335938 C 230.105469 104.289062 230.394531 103.25 230.707031 102.214844 C 231.019531 101.183594 231.359375 100.15625 231.722656 99.140625 C 232.085938 98.121094 232.476562 97.113281 232.886719 96.117188 C 233.300781 95.121094 233.738281 94.132812 234.203125 93.15625 C 234.664062 92.179688 235.148438 91.214844 235.65625 90.261719 C 236.167969 89.308594 236.699219 88.371094 237.253906 87.445312 C 237.808594 86.515625 238.386719 85.605469 238.988281 84.707031 C 239.585938 83.808594 240.210938 82.925781 240.851562 82.058594 C 241.496094 81.191406 242.160156 80.339844 242.847656 79.503906 C 243.53125 78.667969 244.238281 77.851562 244.960938 77.050781 C 245.6875 76.25 246.433594 75.46875 247.195312 74.707031 C 247.960938 73.941406 248.742188 73.195312 249.542969 72.472656 C 250.34375 71.746094 251.160156 71.039062 251.996094 70.355469 C 252.828125 69.671875 253.679688 69.007812 254.546875 68.363281 C 255.417969 67.71875 256.300781 67.097656 257.195312 66.496094 C 258.09375 65.898438 259.007812 65.320312 259.933594 64.765625 C 260.859375 64.207031 261.800781 63.675781 262.753906 63.167969 C 263.707031 62.660156 264.667969 62.171875 265.644531 61.710938 C 266.621094 61.25 267.609375 60.8125 268.609375 60.398438 C 269.605469 59.984375 270.613281 59.597656 271.628906 59.234375 C 272.648438 58.867188 273.671875 58.53125 274.707031 58.214844 C 275.738281 57.902344 276.78125 57.613281 277.828125 57.351562 C 278.875 57.089844 279.929688 56.851562 280.988281 56.640625 C 282.046875 56.433594 283.113281 56.246094 284.179688 56.089844 C 285.25 55.929688 286.320312 55.796875 287.394531 55.691406 C 288.46875 55.585938 289.546875 55.507812 290.625 55.453125 C 291.703125 55.402344 292.785156 55.375 293.863281 55.375 C 294.945312 55.375 296.023438 55.402344 297.101562 55.453125 C 298.183594 55.507812 299.257812 55.585938 300.332031 55.691406 C 301.410156 55.796875 302.480469 55.929688 303.550781 56.089844 C 304.617188 56.246094 305.679688 56.433594 306.742188 56.640625 C 307.800781 56.851562 308.855469 57.089844 309.902344 57.351562 C 310.949219 57.613281 311.988281 57.902344 313.023438 58.214844 C 314.058594 58.53125 315.082031 58.867188 316.097656 59.234375 C 317.117188 59.597656 318.125 59.984375 319.121094 60.398438 C 320.121094 60.8125 321.105469 61.25 322.082031 61.710938 C 323.058594 62.171875 324.023438 62.660156 324.976562 63.167969 C 325.929688 63.675781 326.867188 64.207031 327.796875 64.765625 C 328.722656 65.320312 329.632812 65.898438 330.53125 66.496094 C 331.429688 67.097656 332.3125 67.71875 333.179688 68.363281 C 334.046875 69.007812 334.898438 69.671875 335.734375 70.355469 C 336.570312 71.039062 337.386719 71.746094 338.1875 72.472656 C 338.988281 73.195312 339.769531 73.941406 340.535156 74.707031 C 341.296875 75.46875 342.042969 76.25 342.765625 77.050781 C 343.492188 77.851562 344.199219 78.667969 344.882812 79.503906 C 345.570312 80.339844 346.234375 81.191406 346.875 82.058594 C 347.519531 82.925781 348.140625 83.808594 348.742188 84.707031 C 349.339844 85.605469 349.917969 86.515625 350.476562 87.445312 C 351.03125 88.371094 351.5625 89.308594 352.070312 90.261719 C 352.582031 91.214844 353.066406 92.179688 353.527344 93.15625 C 353.988281 94.132812 354.425781 95.121094 354.839844 96.117188 C 355.253906 97.113281 355.644531 98.121094 356.007812 99.140625 C 356.371094 100.15625 356.710938 101.183594 357.023438 102.214844 C 357.335938 103.25 357.625 104.289062 357.886719 105.335938 C 358.148438 106.386719 358.386719 107.4375 358.597656 108.5 C 358.808594 109.558594 358.992188 110.621094 359.148438 111.691406 C 359.308594 112.757812 359.441406 113.832031 359.546875 114.90625 C 359.652344 115.980469 359.730469 117.058594 359.785156 118.136719 C 359.839844 119.214844 359.863281 120.292969 359.863281 121.375 Z M 359.863281 121.375 " fill-opacity="1" fill-rule="nonzero"/></g><g clip-path="url(#1c14a84144)"><path fill="#03a9f4" d="M 253.917969 68.847656 C 265.007812 60.394531 278.855469 55.375 293.863281 55.375 C 330.292969 55.375 359.863281 84.949219 359.863281 121.375 C 359.863281 151.582031 339.53125 177.074219 311.8125 184.898438 C 327.644531 172.835938 337.863281 153.792969 337.863281 132.375 C 337.863281 95.949219 308.292969 66.375 271.863281 66.375 C 265.644531 66.375 259.621094 67.238281 253.917969 68.847656 Z M 253.917969 68.847656 " fill-opacity="1" fill-rule="evenodd"/></g><g clip-path="url(#655d7b816e)"><path fill="#29b6f6" d="M 238.863281 275.375 C 238.863281 276.632812 238.832031 277.894531 238.773438 279.152344 C 238.710938 280.410156 238.617188 281.667969 238.492188 282.921875 C 238.371094 284.175781 238.214844 285.425781 238.03125 286.671875 C 237.847656 287.917969 237.632812 289.160156 237.386719 290.394531 C 237.140625 291.632812 236.863281 292.863281 236.558594 294.082031 C 236.25 295.304688 235.914062 296.519531 235.550781 297.726562 C 235.183594 298.933594 234.789062 300.128906 234.363281 301.316406 C 233.9375 302.5 233.484375 303.675781 233.003906 304.839844 C 232.519531 306.003906 232.011719 307.15625 231.472656 308.296875 C 230.933594 309.433594 230.367188 310.558594 229.773438 311.671875 C 229.179688 312.785156 228.558594 313.878906 227.910156 314.960938 C 227.261719 316.042969 226.589844 317.105469 225.886719 318.152344 C 225.1875 319.199219 224.460938 320.230469 223.710938 321.242188 C 222.960938 322.253906 222.1875 323.25 221.386719 324.222656 C 220.585938 325.195312 219.765625 326.152344 218.917969 327.085938 C 218.070312 328.019531 217.203125 328.929688 216.3125 329.820312 C 215.421875 330.710938 214.507812 331.582031 213.574219 332.425781 C 212.640625 333.273438 211.6875 334.097656 210.714844 334.894531 C 209.738281 335.695312 208.746094 336.46875 207.734375 337.222656 C 206.722656 337.972656 205.691406 338.699219 204.644531 339.398438 C 203.597656 340.097656 202.53125 340.773438 201.449219 341.417969 C 200.371094 342.066406 199.273438 342.6875 198.164062 343.28125 C 197.050781 343.875 195.925781 344.441406 194.785156 344.980469 C 193.648438 345.519531 192.496094 346.03125 191.332031 346.511719 C 190.167969 346.996094 188.992188 347.449219 187.804688 347.875 C 186.617188 348.296875 185.421875 348.691406 184.214844 349.058594 C 183.011719 349.425781 181.796875 349.761719 180.574219 350.066406 C 179.351562 350.371094 178.121094 350.648438 176.886719 350.894531 C 175.652344 351.140625 174.410156 351.355469 173.164062 351.539062 C 171.917969 351.726562 170.667969 351.878906 169.410156 352.003906 C 168.15625 352.128906 166.902344 352.21875 165.644531 352.28125 C 164.382812 352.34375 163.125 352.375 161.863281 352.375 C 160.605469 352.375 159.34375 352.34375 158.085938 352.28125 C 156.828125 352.21875 155.570312 352.128906 154.316406 352.003906 C 153.0625 351.878906 151.8125 351.726562 150.566406 351.539062 C 149.320312 351.355469 148.078125 351.140625 146.84375 350.894531 C 145.605469 350.648438 144.378906 350.371094 143.15625 350.066406 C 141.933594 349.761719 140.71875 349.425781 139.511719 349.058594 C 138.308594 348.691406 137.109375 348.296875 135.925781 347.875 C 134.738281 347.449219 133.5625 346.996094 132.398438 346.511719 C 131.234375 346.03125 130.082031 345.519531 128.941406 344.980469 C 127.804688 344.441406 126.679688 343.875 125.566406 343.28125 C 124.457031 342.6875 123.359375 342.066406 122.277344 341.417969 C 121.199219 340.773438 120.132812 340.097656 119.085938 339.398438 C 118.039062 338.699219 117.007812 337.972656 115.996094 337.222656 C 114.984375 336.46875 113.992188 335.695312 113.015625 334.894531 C 112.042969 334.097656 111.089844 333.273438 110.15625 332.425781 C 109.222656 331.582031 108.308594 330.710938 107.417969 329.820312 C 106.527344 328.929688 105.65625 328.019531 104.8125 327.085938 C 103.964844 326.152344 103.140625 325.195312 102.34375 324.222656 C 101.542969 323.25 100.769531 322.253906 100.019531 321.242188 C 99.265625 320.230469 98.542969 319.199219 97.839844 318.152344 C 97.140625 317.105469 96.46875 316.042969 95.820312 314.960938 C 95.171875 313.878906 94.550781 312.785156 93.957031 311.671875 C 93.363281 310.558594 92.796875 309.433594 92.257812 308.296875 C 91.71875 307.15625 91.207031 306.003906 90.726562 304.839844 C 90.242188 303.675781 89.789062 302.5 89.367188 301.316406 C 88.941406 300.128906 88.546875 298.933594 88.179688 297.726562 C 87.816406 296.519531 87.476562 295.304688 87.171875 294.082031 C 86.867188 292.863281 86.589844 291.632812 86.34375 290.394531 C 86.097656 289.160156 85.882812 287.917969 85.699219 286.671875 C 85.511719 285.425781 85.359375 284.175781 85.234375 282.921875 C 85.113281 281.667969 85.019531 280.410156 84.957031 279.152344 C 84.894531 277.894531 84.863281 276.632812 84.863281 275.375 C 84.863281 274.113281 84.894531 272.855469 84.957031 271.597656 C 85.019531 270.335938 85.113281 269.082031 85.234375 267.828125 C 85.359375 266.574219 85.511719 265.324219 85.699219 264.074219 C 85.882812 262.828125 86.097656 261.589844 86.34375 260.351562 C 86.589844 259.117188 86.867188 257.886719 87.171875 256.664062 C 87.476562 255.441406 87.816406 254.226562 88.179688 253.023438 C 88.546875 251.816406 88.941406 250.621094 89.367188 249.433594 C 89.789062 248.246094 90.242188 247.070312 90.726562 245.90625 C 91.207031 244.742188 91.71875 243.589844 92.257812 242.453125 C 92.796875 241.3125 93.363281 240.1875 93.957031 239.078125 C 94.550781 237.964844 95.171875 236.871094 95.820312 235.789062 C 96.46875 234.707031 97.140625 233.644531 97.839844 232.59375 C 98.542969 231.546875 99.265625 230.519531 100.019531 229.503906 C 100.769531 228.492188 101.542969 227.5 102.34375 226.527344 C 103.140625 225.550781 103.964844 224.597656 104.8125 223.664062 C 105.65625 222.730469 106.527344 221.816406 107.417969 220.925781 C 108.308594 220.035156 109.222656 219.167969 110.15625 218.320312 C 111.089844 217.476562 112.042969 216.652344 113.015625 215.851562 C 113.992188 215.054688 114.984375 214.277344 115.996094 213.527344 C 117.007812 212.777344 118.039062 212.050781 119.085938 211.351562 C 120.132812 210.652344 121.199219 209.976562 122.277344 209.328125 C 123.359375 208.679688 124.457031 208.058594 125.566406 207.464844 C 126.679688 206.871094 127.804688 206.304688 128.941406 205.765625 C 130.082031 205.226562 131.234375 204.71875 132.398438 204.234375 C 133.5625 203.753906 134.738281 203.300781 135.925781 202.875 C 137.109375 202.449219 138.308594 202.054688 139.511719 201.691406 C 140.71875 201.324219 141.933594 200.988281 143.15625 200.683594 C 144.378906 200.375 145.605469 200.101562 146.84375 199.855469 C 148.078125 199.609375 149.320312 199.394531 150.566406 199.207031 C 151.8125 199.023438 153.0625 198.867188 154.316406 198.746094 C 155.570312 198.621094 156.828125 198.527344 158.085938 198.46875 C 159.34375 198.40625 160.605469 198.375 161.863281 198.375 C 163.125 198.375 164.382812 198.40625 165.644531 198.46875 C 166.902344 198.527344 168.15625 198.621094 169.410156 198.746094 C 170.667969 198.867188 171.917969 199.023438 173.164062 199.207031 C 174.410156 199.394531 175.652344 199.609375 176.886719 199.855469 C 178.121094 200.101562 179.351562 200.375 180.574219 200.683594 C 181.796875 200.988281 183.011719 201.324219 184.214844 201.691406 C 185.421875 202.054688 186.617188 202.449219 187.804688 202.875 C 188.992188 203.300781 190.167969 203.753906 191.332031 204.234375 C 192.496094 204.71875 193.648438 205.226562 194.785156 205.765625 C 195.925781 206.304688 197.050781 206.871094 198.164062 207.464844 C 199.273438 208.058594 200.371094 208.679688 201.449219 209.328125 C 202.53125 209.976562 203.597656 210.652344 204.644531 211.351562 C 205.691406 212.050781 206.722656 212.777344 207.734375 213.527344 C 208.746094 214.277344 209.738281 215.054688 210.714844 215.851562 C 211.6875 216.652344 212.640625 217.476562 213.574219 218.320312 C 214.507812 219.167969 215.421875 220.035156 216.3125 220.925781 C 217.203125 221.816406 218.070312 222.730469 218.917969 223.664062 C 219.765625 224.597656 220.585938 225.550781 221.386719 226.527344 C 222.1875 227.5 222.960938 228.492188 223.710938 229.503906 C 224.460938 230.519531 225.1875 231.546875 225.886719 232.59375 C 226.589844 233.644531 227.261719 234.707031 227.910156 235.789062 C 228.558594 236.871094 229.179688 237.964844 229.773438 239.078125 C 230.367188 240.1875 230.933594 241.3125 231.472656 242.453125 C 232.011719 243.589844 232.519531 244.742188 233.003906 245.90625 C 233.484375 247.070312 233.9375 248.246094 234.363281 249.433594 C 234.789062 250.621094 235.183594 251.816406 235.550781 253.023438 C 235.914062 254.226562 236.25 255.441406 236.558594 256.664062 C 236.863281 257.886719 237.140625 259.117188 237.386719 260.351562 C 237.632812 261.589844 237.847656 262.828125 238.03125 264.074219 C 238.214844 265.324219 238.371094 266.574219 238.492188 267.828125 C 238.617188 269.082031 238.710938 270.335938 238.773438 271.597656 C 238.832031 272.855469 238.863281 274.113281 238.863281 275.375 Z M 238.863281 275.375 " fill-opacity="1" fill-rule="nonzero"/></g><path fill="#03a9f4" d="M 116.933594 212.851562 C 129.585938 203.742188 145.105469 198.375 161.863281 198.375 C 204.363281 198.375 238.863281 232.875 238.863281 275.375 C 238.863281 309.886719 216.109375 339.125 184.792969 348.898438 C 204.210938 334.917969 216.863281 312.109375 216.863281 286.375 C 216.863281 243.875 182.363281 209.375 139.863281 209.375 C 131.878906 209.375 124.179688 210.589844 116.933594 212.851562 Z M 116.933594 212.851562 " fill-opacity="1" fill-rule="evenodd"/><g clip-path="url(#d416868dab)"><path fill="#29b6f6" d="M 359.863281 264.375 C 359.863281 265.636719 359.804688 266.894531 359.679688 268.148438 C 359.554688 269.402344 359.371094 270.648438 359.125 271.886719 C 358.878906 273.121094 358.574219 274.34375 358.207031 275.550781 C 357.839844 276.757812 357.417969 277.941406 356.933594 279.109375 C 356.453125 280.273438 355.914062 281.410156 355.320312 282.523438 C 354.722656 283.636719 354.078125 284.714844 353.375 285.765625 C 352.675781 286.8125 351.925781 287.824219 351.125 288.796875 C 350.324219 289.773438 349.480469 290.707031 348.589844 291.597656 C 347.695312 292.488281 346.761719 293.335938 345.789062 294.136719 C 344.8125 294.933594 343.800781 295.683594 342.753906 296.386719 C 341.707031 297.085938 340.625 297.734375 339.511719 298.328125 C 338.402344 298.921875 337.261719 299.460938 336.097656 299.945312 C 334.933594 300.425781 333.746094 300.851562 332.539062 301.214844 C 331.335938 301.582031 330.113281 301.886719 328.875 302.132812 C 327.640625 302.378906 326.394531 302.566406 325.136719 302.6875 C 323.882812 302.8125 322.625 302.875 321.363281 302.875 C 320.105469 302.875 318.847656 302.8125 317.589844 302.6875 C 316.335938 302.566406 315.089844 302.378906 313.855469 302.132812 C 312.617188 301.886719 311.394531 301.582031 310.1875 301.214844 C 308.980469 300.851562 307.796875 300.425781 306.632812 299.945312 C 305.464844 299.460938 304.328125 298.921875 303.214844 298.328125 C 302.105469 297.734375 301.023438 297.085938 299.976562 296.386719 C 298.925781 295.683594 297.914062 294.933594 296.941406 294.136719 C 295.964844 293.335938 295.03125 292.488281 294.140625 291.597656 C 293.25 290.707031 292.402344 289.773438 291.605469 288.796875 C 290.804688 287.824219 290.054688 286.8125 289.351562 285.765625 C 288.652344 284.714844 288.003906 283.636719 287.410156 282.523438 C 286.816406 281.410156 286.277344 280.273438 285.796875 279.109375 C 285.3125 277.941406 284.886719 276.757812 284.523438 275.550781 C 284.15625 274.34375 283.851562 273.121094 283.605469 271.886719 C 283.359375 270.648438 283.171875 269.402344 283.050781 268.148438 C 282.925781 266.894531 282.863281 265.636719 282.863281 264.375 C 282.863281 263.113281 282.925781 261.855469 283.050781 260.601562 C 283.171875 259.347656 283.359375 258.101562 283.605469 256.863281 C 283.851562 255.625 284.15625 254.40625 284.523438 253.199219 C 284.886719 251.992188 285.3125 250.804688 285.796875 249.640625 C 286.277344 248.476562 286.816406 247.335938 287.410156 246.226562 C 288.003906 245.113281 288.652344 244.035156 289.351562 242.984375 C 290.054688 241.9375 290.804688 240.925781 291.605469 239.949219 C 292.402344 238.976562 293.25 238.042969 294.140625 237.152344 C 295.03125 236.257812 295.964844 235.414062 296.941406 234.613281 C 297.914062 233.8125 298.925781 233.0625 299.976562 232.363281 C 301.023438 231.664062 302.105469 231.015625 303.214844 230.421875 C 304.328125 229.824219 305.464844 229.289062 306.632812 228.804688 C 307.796875 228.324219 308.980469 227.898438 310.1875 227.53125 C 311.394531 227.167969 312.617188 226.859375 313.855469 226.613281 C 315.089844 226.367188 316.335938 226.183594 317.589844 226.058594 C 318.847656 225.9375 320.105469 225.875 321.363281 225.875 C 322.625 225.875 323.882812 225.9375 325.136719 226.058594 C 326.394531 226.183594 327.640625 226.367188 328.875 226.613281 C 330.113281 226.859375 331.335938 227.167969 332.539062 227.53125 C 333.746094 227.898438 334.933594 228.324219 336.097656 228.804688 C 337.261719 229.289062 338.402344 229.824219 339.511719 230.421875 C 340.625 231.015625 341.707031 231.664062 342.753906 232.363281 C 343.800781 233.0625 344.8125 233.8125 345.789062 234.613281 C 346.761719 235.414062 347.695312 236.257812 348.589844 237.152344 C 349.480469 238.042969 350.324219 238.976562 351.125 239.949219 C 351.925781 240.925781 352.675781 241.9375 353.375 242.984375 C 354.078125 244.035156 354.722656 245.113281 355.320312 246.226562 C 355.914062 247.335938 356.453125 248.476562 356.933594 249.640625 C 357.417969 250.804688 357.839844 251.992188 358.207031 253.199219 C 358.574219 254.40625 358.878906 255.625 359.125 256.863281 C 359.371094 258.101562 359.554688 259.347656 359.679688 260.601562 C 359.804688 261.855469 359.863281 263.113281 359.863281 264.375 Z M 359.863281 264.375 " fill-opacity="1" fill-rule="nonzero"/></g><g clip-path="url(#890e4dbe87)"><path fill="#03a9f4" d="M 294.066406 237.238281 C 301.042969 230.21875 310.699219 225.875 321.363281 225.875 C 342.609375 225.875 359.863281 243.128906 359.863281 264.375 C 359.863281 283.828125 345.410156 299.925781 326.660156 302.511719 C 333.585938 295.546875 337.863281 285.957031 337.863281 275.375 C 337.863281 254.128906 320.609375 236.875 299.363281 236.875 C 297.566406 236.875 295.800781 236.996094 294.066406 237.238281 Z M 294.066406 237.238281 " fill-opacity="1" fill-rule="evenodd"/></g><path fill="#039be5" d="M 84.863281 104.875 C 100.042969 104.875 112.363281 117.195312 112.363281 132.375 C 112.363281 135.410156 114.828125 137.875 117.863281 137.875 C 120.902344 137.875 123.363281 135.410156 123.363281 132.375 C 123.363281 111.128906 106.109375 93.875 84.863281 93.875 C 81.828125 93.875 79.363281 96.339844 79.363281 99.375 C 79.363281 102.410156 81.828125 104.875 84.863281 104.875 Z M 84.863281 104.875 " fill-opacity="1" fill-rule="evenodd"/><path fill="#0288d1" d="M 79.363281 99.375 L 79.613281 99.375 C 100.75 99.507812 117.863281 116.710938 117.863281 137.875 L 117.9375 137.875 C 120.9375 137.835938 123.363281 135.386719 123.363281 132.375 C 123.363281 111.128906 106.109375 93.875 84.863281 93.875 C 81.828125 93.875 79.363281 96.339844 79.363281 99.375 Z M 79.363281 99.375 " fill-opacity="1" fill-rule="evenodd"/><path fill="#039be5" d="M 293.863281 159.875 C 272.617188 159.875 255.363281 142.621094 255.363281 121.375 C 255.363281 118.339844 252.902344 115.875 249.863281 115.875 C 246.828125 115.875 244.363281 118.339844 244.363281 121.375 C 244.363281 148.691406 266.546875 170.875 293.863281 170.875 C 296.902344 170.875 299.363281 168.410156 299.363281 165.375 C 299.363281 162.339844 296.902344 159.875 293.863281 159.875 Z M 293.863281 159.875 " fill-opacity="1" fill-rule="evenodd"/><path fill="#0288d1" d="M 244.363281 121.375 L 244.4375 121.375 C 247.4375 121.414062 249.863281 123.859375 249.863281 126.875 C 249.863281 148.121094 267.117188 165.375 288.363281 165.375 C 291.402344 165.375 293.863281 167.839844 293.863281 170.875 C 296.902344 170.875 299.363281 168.410156 299.363281 165.375 C 299.363281 162.339844 296.902344 159.875 293.863281 159.875 C 272.617188 159.875 255.363281 142.621094 255.363281 121.375 C 255.363281 118.339844 252.902344 115.875 249.863281 115.875 C 246.828125 115.875 244.363281 118.339844 244.363281 121.375 Z M 244.363281 121.375 " fill-opacity="1" fill-rule="evenodd"/><path fill="#039be5" d="M 161.863281 225.875 C 189.183594 225.875 211.363281 248.054688 211.363281 275.375 C 211.363281 278.410156 213.828125 280.875 216.863281 280.875 C 219.902344 280.875 222.363281 278.410156 222.363281 275.375 C 222.363281 241.984375 195.253906 214.875 161.863281 214.875 C 158.828125 214.875 156.363281 217.339844 156.363281 220.375 C 156.363281 223.410156 158.828125 225.875 161.863281 225.875 Z M 161.863281 225.875 " fill-opacity="1" fill-rule="evenodd"/><path fill="#0288d1" d="M 156.363281 220.375 L 156.753906 220.375 C 189.964844 220.582031 216.863281 247.617188 216.863281 280.875 L 217.007812 280.875 C 219.976562 280.796875 222.363281 278.359375 222.363281 275.375 C 222.363281 241.984375 195.253906 214.875 161.863281 214.875 C 158.828125 214.875 156.363281 217.339844 156.363281 220.375 Z M 156.363281 220.375 " fill-opacity="1" fill-rule="evenodd"/><path fill="#039be5" d="M 321.929688 242.378906 L 321.363281 242.375 C 318.328125 242.375 315.863281 244.839844 315.863281 247.875 C 315.863281 250.910156 318.328125 253.375 321.363281 253.375 C 327.246094 253.375 332.058594 258 332.347656 263.808594 L 332.371094 264.65625 C 332.519531 267.5625 334.921875 269.875 337.863281 269.875 C 340.902344 269.875 343.363281 267.410156 343.363281 264.375 C 343.363281 252.421875 333.8125 242.683594 321.929688 242.378906 Z M 321.929688 242.378906 " fill-opacity="1" fill-rule="evenodd"/><path fill="#0288d1" d="M 315.863281 247.875 L 316.429688 247.878906 C 328.3125 248.183594 337.863281 257.921875 337.863281 269.875 L 337.9375 269.875 C 340.9375 269.835938 343.363281 267.386719 343.363281 264.375 C 343.363281 252.421875 333.8125 242.683594 321.929688 242.378906 L 321.363281 242.375 C 318.328125 242.375 315.863281 244.839844 315.863281 247.875 Z M 315.863281 247.875 " fill-opacity="1" fill-rule="evenodd"/><path fill="#29b6f6" d="M 211.363281 60.875 C 211.363281 61.59375 211.328125 62.3125 211.257812 63.03125 C 211.1875 63.746094 211.082031 64.460938 210.941406 65.167969 C 210.800781 65.871094 210.625 66.570312 210.417969 67.261719 C 210.207031 67.949219 209.964844 68.628906 209.691406 69.292969 C 209.414062 69.960938 209.105469 70.609375 208.765625 71.246094 C 208.425781 71.878906 208.058594 72.496094 207.65625 73.097656 C 207.257812 73.695312 206.828125 74.273438 206.371094 74.832031 C 205.914062 75.386719 205.429688 75.921875 204.921875 76.429688 C 204.410156 76.941406 203.878906 77.421875 203.320312 77.878906 C 202.765625 78.335938 202.1875 78.765625 201.585938 79.167969 C 200.988281 79.566406 200.371094 79.9375 199.734375 80.277344 C 199.101562 80.617188 198.449219 80.925781 197.785156 81.199219 C 197.117188 81.476562 196.441406 81.71875 195.75 81.925781 C 195.0625 82.136719 194.363281 82.3125 193.65625 82.453125 C 192.949219 82.59375 192.238281 82.699219 191.519531 82.769531 C 190.804688 82.839844 190.085938 82.875 189.363281 82.875 C 188.644531 82.875 187.925781 82.839844 187.207031 82.769531 C 186.492188 82.699219 185.78125 82.59375 185.074219 82.453125 C 184.367188 82.3125 183.667969 82.136719 182.976562 81.925781 C 182.289062 81.71875 181.609375 81.476562 180.945312 81.199219 C 180.28125 80.925781 179.628906 80.617188 178.992188 80.277344 C 178.359375 79.9375 177.742188 79.566406 177.140625 79.167969 C 176.542969 78.765625 175.964844 78.335938 175.40625 77.878906 C 174.851562 77.421875 174.316406 76.941406 173.808594 76.429688 C 173.300781 75.921875 172.816406 75.386719 172.359375 74.832031 C 171.902344 74.273438 171.472656 73.695312 171.074219 73.097656 C 170.671875 72.496094 170.300781 71.878906 169.960938 71.246094 C 169.621094 70.609375 169.316406 69.960938 169.039062 69.292969 C 168.761719 68.628906 168.519531 67.949219 168.3125 67.261719 C 168.101562 66.570312 167.929688 65.871094 167.789062 65.167969 C 167.648438 64.460938 167.542969 63.746094 167.46875 63.03125 C 167.398438 62.3125 167.363281 61.59375 167.363281 60.875 C 167.363281 60.152344 167.398438 59.433594 167.46875 58.71875 C 167.542969 58 167.648438 57.289062 167.789062 56.582031 C 167.929688 55.875 168.101562 55.175781 168.3125 54.488281 C 168.519531 53.796875 168.761719 53.121094 169.039062 52.457031 C 169.316406 51.789062 169.621094 51.140625 169.960938 50.503906 C 170.300781 49.867188 170.671875 49.25 171.074219 48.652344 C 171.472656 48.050781 171.902344 47.476562 172.359375 46.917969 C 172.816406 46.359375 173.300781 45.828125 173.808594 45.316406 C 174.316406 44.808594 174.851562 44.324219 175.40625 43.867188 C 175.964844 43.410156 176.542969 42.980469 177.140625 42.582031 C 177.742188 42.183594 178.359375 41.8125 178.992188 41.472656 C 179.628906 41.132812 180.28125 40.824219 180.945312 40.550781 C 181.609375 40.273438 182.289062 40.03125 182.976562 39.820312 C 183.667969 39.613281 184.367188 39.4375 185.074219 39.296875 C 185.78125 39.15625 186.492188 39.050781 187.207031 38.980469 C 187.925781 38.910156 188.644531 38.875 189.363281 38.875 C 190.085938 38.875 190.804688 38.910156 191.519531 38.980469 C 192.238281 39.050781 192.949219 39.15625 193.65625 39.296875 C 194.363281 39.4375 195.0625 39.613281 195.75 39.820312 C 196.441406 40.03125 197.117188 40.273438 197.785156 40.550781 C 198.449219 40.824219 199.101562 41.132812 199.734375 41.472656 C 200.371094 41.8125 200.988281 42.183594 201.585938 42.582031 C 202.1875 42.980469 202.765625 43.410156 203.320312 43.867188 C 203.878906 44.324219 204.410156 44.808594 204.921875 45.316406 C 205.429688 45.828125 205.914062 46.359375 206.371094 46.917969 C 206.828125 47.476562 207.257812 48.050781 207.65625 48.652344 C 208.058594 49.25 208.425781 49.867188 208.765625 50.503906 C 209.105469 51.140625 209.414062 51.789062 209.691406 52.457031 C 209.964844 53.121094 210.207031 53.796875 210.417969 54.488281 C 210.625 55.175781 210.800781 55.875 210.941406 56.582031 C 211.082031 57.289062 211.1875 58 211.257812 58.71875 C 211.328125 59.433594 211.363281 60.152344 211.363281 60.875 Z M 211.363281 60.875 " fill-opacity="1" fill-rule="nonzero"/><path fill="#03a9f4" d="M 174.433594 44.726562 C 178.355469 41.097656 183.601562 38.875 189.363281 38.875 C 201.507812 38.875 211.363281 48.730469 211.363281 60.875 C 211.363281 71.671875 203.566406 80.664062 193.296875 82.523438 C 197.640625 78.5 200.363281 72.753906 200.363281 66.375 C 200.363281 54.230469 190.507812 44.375 178.363281 44.375 C 177.023438 44.375 175.707031 44.496094 174.433594 44.726562 Z M 174.433594 44.726562 " fill-opacity="1" fill-rule="evenodd"/><path fill="#29b6f6" d="M 277.363281 220.375 C 277.363281 221.097656 277.292969 221.8125 277.152344 222.519531 C 277.011719 223.230469 276.804688 223.917969 276.527344 224.582031 C 276.25 225.25 275.910156 225.886719 275.511719 226.484375 C 275.109375 227.085938 274.652344 227.640625 274.144531 228.152344 C 273.632812 228.664062 273.078125 229.121094 272.476562 229.519531 C 271.875 229.921875 271.242188 230.261719 270.574219 230.535156 C 269.90625 230.8125 269.21875 231.023438 268.511719 231.164062 C 267.800781 231.304688 267.085938 231.375 266.363281 231.375 C 265.640625 231.375 264.925781 231.304688 264.21875 231.164062 C 263.511719 231.023438 262.824219 230.8125 262.15625 230.535156 C 261.488281 230.261719 260.855469 229.921875 260.253906 229.519531 C 259.652344 229.121094 259.097656 228.664062 258.585938 228.152344 C 258.074219 227.640625 257.621094 227.085938 257.21875 226.484375 C 256.816406 225.886719 256.476562 225.25 256.203125 224.582031 C 255.925781 223.917969 255.71875 223.230469 255.574219 222.519531 C 255.433594 221.8125 255.363281 221.097656 255.363281 220.375 C 255.363281 219.652344 255.433594 218.9375 255.574219 218.226562 C 255.71875 217.519531 255.925781 216.832031 256.203125 216.164062 C 256.476562 215.496094 256.816406 214.863281 257.21875 214.261719 C 257.621094 213.664062 258.074219 213.105469 258.585938 212.597656 C 259.097656 212.085938 259.652344 211.628906 260.253906 211.226562 C 260.855469 210.828125 261.488281 210.488281 262.15625 210.210938 C 262.824219 209.933594 263.511719 209.726562 264.21875 209.585938 C 264.925781 209.445312 265.640625 209.375 266.363281 209.375 C 267.085938 209.375 267.800781 209.445312 268.511719 209.585938 C 269.21875 209.726562 269.90625 209.933594 270.574219 210.210938 C 271.242188 210.488281 271.875 210.828125 272.476562 211.226562 C 273.078125 211.628906 273.632812 212.085938 274.144531 212.597656 C 274.652344 213.105469 275.109375 213.664062 275.511719 214.261719 C 275.910156 214.863281 276.25 215.496094 276.527344 216.164062 C 276.804688 216.832031 277.011719 217.519531 277.152344 218.226562 C 277.292969 218.9375 277.363281 219.652344 277.363281 220.375 Z M 277.363281 220.375 " fill-opacity="1" fill-rule="nonzero"/><path fill="#03a9f4" d="M 256.339844 215.847656 C 258.066406 212.03125 261.902344 209.375 266.363281 209.375 C 272.4375 209.375 277.363281 214.300781 277.363281 220.375 C 277.363281 224.835938 274.707031 228.675781 270.890625 230.402344 C 271.519531 229.019531 271.863281 227.484375 271.863281 225.875 C 271.863281 219.800781 266.9375 214.875 260.863281 214.875 C 259.253906 214.875 257.71875 215.222656 256.339844 215.847656 Z M 256.339844 215.847656 " fill-opacity="1" fill-rule="evenodd"/><g clip-path="url(#f56bbf0868)"><path fill="#29b6f6" d="M 51.863281 291.875 C 51.863281 292.597656 51.792969 293.3125 51.652344 294.019531 C 51.511719 294.730469 51.304688 295.417969 51.027344 296.082031 C 50.75 296.75 50.414062 297.386719 50.011719 297.984375 C 49.609375 298.585938 49.152344 299.140625 48.644531 299.652344 C 48.132812 300.164062 47.578125 300.621094 46.976562 301.019531 C 46.375 301.421875 45.742188 301.761719 45.074219 302.035156 C 44.40625 302.3125 43.71875 302.523438 43.011719 302.664062 C 42.300781 302.804688 41.585938 302.875 40.863281 302.875 C 40.140625 302.875 39.425781 302.804688 38.71875 302.664062 C 38.011719 302.523438 37.324219 302.3125 36.65625 302.035156 C 35.988281 301.761719 35.355469 301.421875 34.753906 301.019531 C 34.152344 300.621094 33.597656 300.164062 33.085938 299.652344 C 32.574219 299.140625 32.121094 298.585938 31.71875 297.984375 C 31.316406 297.386719 30.976562 296.75 30.703125 296.082031 C 30.425781 295.417969 30.21875 294.730469 30.074219 294.019531 C 29.933594 293.3125 29.863281 292.597656 29.863281 291.875 C 29.863281 291.152344 29.933594 290.4375 30.074219 289.726562 C 30.21875 289.019531 30.425781 288.332031 30.703125 287.664062 C 30.976562 286.996094 31.316406 286.363281 31.71875 285.761719 C 32.121094 285.164062 32.574219 284.605469 33.085938 284.097656 C 33.597656 283.585938 34.152344 283.128906 34.753906 282.726562 C 35.355469 282.328125 35.988281 281.988281 36.65625 281.710938 C 37.324219 281.433594 38.011719 281.226562 38.71875 281.085938 C 39.425781 280.945312 40.140625 280.875 40.863281 280.875 C 41.585938 280.875 42.300781 280.945312 43.011719 281.085938 C 43.71875 281.226562 44.40625 281.433594 45.074219 281.710938 C 45.742188 281.988281 46.375 282.328125 46.976562 282.726562 C 47.578125 283.128906 48.132812 283.585938 48.644531 284.097656 C 49.152344 284.605469 49.609375 285.164062 50.011719 285.761719 C 50.414062 286.363281 50.75 286.996094 51.027344 287.664062 C 51.304688 288.332031 51.511719 289.019531 51.652344 289.726562 C 51.792969 290.4375 51.863281 291.152344 51.863281 291.875 Z M 51.863281 291.875 " fill-opacity="1" fill-rule="nonzero"/></g><path fill="#03a9f4" d="M 30.839844 287.347656 C 32.566406 283.53125 36.402344 280.875 40.863281 280.875 C 46.9375 280.875 51.863281 285.800781 51.863281 291.875 C 51.863281 296.335938 49.207031 300.175781 45.390625 301.902344 C 46.019531 300.519531 46.363281 298.984375 46.363281 297.375 C 46.363281 291.300781 41.4375 286.375 35.363281 286.375 C 33.753906 286.375 32.21875 286.722656 30.839844 287.347656 Z M 30.839844 287.347656 " fill-opacity="1" fill-rule="evenodd"/><path fill="#29b6f6" d="M 194.863281 126.875 C 194.863281 127.597656 194.792969 128.3125 194.652344 129.019531 C 194.511719 129.730469 194.304688 130.417969 194.027344 131.082031 C 193.75 131.75 193.414062 132.386719 193.011719 132.984375 C 192.609375 133.585938 192.152344 134.140625 191.644531 134.652344 C 191.132812 135.164062 190.578125 135.621094 189.976562 136.019531 C 189.375 136.421875 188.742188 136.761719 188.074219 137.035156 C 187.40625 137.3125 186.71875 137.523438 186.011719 137.664062 C 185.300781 137.804688 184.585938 137.875 183.863281 137.875 C 183.140625 137.875 182.425781 137.804688 181.71875 137.664062 C 181.011719 137.523438 180.324219 137.3125 179.65625 137.035156 C 178.988281 136.761719 178.355469 136.421875 177.753906 136.019531 C 177.152344 135.621094 176.597656 135.164062 176.085938 134.652344 C 175.574219 134.140625 175.121094 133.585938 174.71875 132.984375 C 174.316406 132.386719 173.976562 131.75 173.703125 131.082031 C 173.425781 130.417969 173.21875 129.730469 173.074219 129.019531 C 172.933594 128.3125 172.863281 127.597656 172.863281 126.875 C 172.863281 126.152344 172.933594 125.4375 173.074219 124.726562 C 173.21875 124.019531 173.425781 123.332031 173.703125 122.664062 C 173.976562 121.996094 174.316406 121.363281 174.71875 120.761719 C 175.121094 120.164062 175.574219 119.605469 176.085938 119.097656 C 176.597656 118.585938 177.152344 118.128906 177.753906 117.726562 C 178.355469 117.328125 178.988281 116.988281 179.65625 116.710938 C 180.324219 116.433594 181.011719 116.226562 181.71875 116.085938 C 182.425781 115.945312 183.140625 115.875 183.863281 115.875 C 184.585938 115.875 185.300781 115.945312 186.011719 116.085938 C 186.71875 116.226562 187.40625 116.433594 188.074219 116.710938 C 188.742188 116.988281 189.375 117.328125 189.976562 117.726562 C 190.578125 118.128906 191.132812 118.585938 191.644531 119.097656 C 192.152344 119.605469 192.609375 120.164062 193.011719 120.761719 C 193.414062 121.363281 193.75 121.996094 194.027344 122.664062 C 194.304688 123.332031 194.511719 124.019531 194.652344 124.726562 C 194.792969 125.4375 194.863281 126.152344 194.863281 126.875 Z M 194.863281 126.875 " fill-opacity="1" fill-rule="nonzero"/><path fill="#03a9f4" d="M 173.839844 122.347656 C 175.566406 118.53125 179.402344 115.875 183.863281 115.875 C 189.9375 115.875 194.863281 120.800781 194.863281 126.875 C 194.863281 131.335938 192.207031 135.175781 188.390625 136.902344 C 189.019531 135.519531 189.363281 133.984375 189.363281 132.375 C 189.363281 126.300781 184.4375 121.375 178.363281 121.375 C 176.753906 121.375 175.21875 121.722656 173.839844 122.347656 Z M 173.839844 122.347656 " fill-opacity="1" fill-rule="evenodd"/><g clip-path="url(#65ae574937)"><path fill="#29b6f6" d="M 117.863281 33.375 C 117.863281 34.097656 117.792969 34.8125 117.652344 35.519531 C 117.511719 36.230469 117.304688 36.917969 117.027344 37.582031 C 116.75 38.25 116.414062 38.886719 116.011719 39.484375 C 115.609375 40.085938 115.152344 40.640625 114.644531 41.152344 C 114.132812 41.664062 113.578125 42.121094 112.976562 42.519531 C 112.375 42.921875 111.742188 43.261719 111.074219 43.535156 C 110.40625 43.8125 109.71875 44.023438 109.011719 44.164062 C 108.300781 44.304688 107.585938 44.375 106.863281 44.375 C 106.140625 44.375 105.425781 44.304688 104.71875 44.164062 C 104.011719 44.023438 103.324219 43.8125 102.65625 43.535156 C 101.988281 43.261719 101.355469 42.921875 100.753906 42.519531 C 100.152344 42.121094 99.597656 41.664062 99.085938 41.152344 C 98.574219 40.640625 98.121094 40.085938 97.71875 39.484375 C 97.316406 38.886719 96.976562 38.25 96.703125 37.582031 C 96.425781 36.917969 96.21875 36.230469 96.074219 35.519531 C 95.933594 34.8125 95.863281 34.097656 95.863281 33.375 C 95.863281 32.652344 95.933594 31.9375 96.074219 31.226562 C 96.21875 30.519531 96.425781 29.832031 96.703125 29.164062 C 96.976562 28.496094 97.316406 27.863281 97.71875 27.261719 C 98.121094 26.664062 98.574219 26.105469 99.085938 25.597656 C 99.597656 25.085938 100.152344 24.628906 100.753906 24.226562 C 101.355469 23.828125 101.988281 23.488281 102.65625 23.210938 C 103.324219 22.933594 104.011719 22.726562 104.71875 22.585938 C 105.425781 22.445312 106.140625 22.375 106.863281 22.375 C 107.585938 22.375 108.300781 22.445312 109.011719 22.585938 C 109.71875 22.726562 110.40625 22.933594 111.074219 23.210938 C 111.742188 23.488281 112.375 23.828125 112.976562 24.226562 C 113.578125 24.628906 114.132812 25.085938 114.644531 25.597656 C 115.152344 26.105469 115.609375 26.664062 116.011719 27.261719 C 116.414062 27.863281 116.75 28.496094 117.027344 29.164062 C 117.304688 29.832031 117.511719 30.519531 117.652344 31.226562 C 117.792969 31.9375 117.863281 32.652344 117.863281 33.375 Z M 117.863281 33.375 " fill-opacity="1" fill-rule="nonzero"/></g><g clip-path="url(#1c2862400a)"><path fill="#03a9f4" d="M 96.839844 28.847656 C 98.566406 25.03125 102.402344 22.375 106.863281 22.375 C 112.9375 22.375 117.863281 27.300781 117.863281 33.375 C 117.863281 37.835938 115.207031 41.675781 111.390625 43.402344 C 112.019531 42.019531 112.363281 40.484375 112.363281 38.875 C 112.363281 32.800781 107.4375 27.875 101.363281 27.875 C 99.753906 27.875 98.21875 28.222656 96.839844 28.847656 Z M 96.839844 28.847656 " fill-opacity="1" fill-rule="evenodd"/></g></svg>