<svg xmlns="http://www.w3.org/2000/svg" xmlns:xlink="http://www.w3.org/1999/xlink" width="500" zoomAndPan="magnify" viewBox="0 0 375 374.999991" height="500" preserveAspectRatio="xMidYMid meet" version="1.0"><defs><clipPath id="97569f2f87"><path d="M 22.617188 28.800781 L 352.617188 28.800781 L 352.617188 358.566406 L 22.617188 358.566406 Z M 22.617188 28.800781 " clip-rule="nonzero"/></clipPath></defs><g clip-path="url(#97569f2f87)"><path fill="#19222e" d="M 187.617188 358.566406 C 96.496094 358.566406 22.617188 284.6875 22.617188 193.566406 C 22.617188 102.445312 96.496094 28.566406 187.617188 28.566406 C 278.738281 28.566406 352.617188 102.445312 352.617188 193.566406 C 352.617188 284.6875 278.738281 358.566406 187.617188 358.566406 Z M 247.59375 166.507812 C 226.609375 135.28125 193.898438 107.476562 192.496094 106.363281 C 191.054688 105.25 189.347656 104.6875 187.628906 104.6875 C 185.898438 104.6875 184.164062 105.25 182.75 106.363281 C 181.375 107.476562 148.632812 135.292969 127.652344 166.507812 C 126.03125 168.925781 125.890625 172.019531 127.253906 174.578125 C 128.613281 177.136719 131.28125 178.746094 134.195312 178.746094 L 161.585938 178.746094 C 164.460938 195.890625 165.328125 267.15625 167.320312 269.960938 C 170.25 274.101562 179.722656 276.90625 187.628906 276.90625 C 195.507812 276.90625 203.882812 274.101562 206.796875 269.960938 C 208.789062 267.15625 210.769531 195.890625 213.644531 178.746094 L 241.117188 178.746094 C 243.992188 178.746094 246.671875 177.136719 248.035156 174.578125 C 249.394531 172.019531 249.203125 168.925781 247.59375 166.507812 Z M 247.59375 166.507812 " fill-opacity="1" fill-rule="nonzero"/></g></svg>