<svg xmlns="http://www.w3.org/2000/svg" xmlns:xlink="http://www.w3.org/1999/xlink" width="500" zoomAndPan="magnify" viewBox="0 0 375 374.999991" height="500" preserveAspectRatio="xMidYMid meet" version="1.0"><defs><clipPath id="39dad590ba"><path d="M 22.617188 28.800781 L 352.617188 28.800781 L 352.617188 358.800781 L 22.617188 358.800781 Z M 22.617188 28.800781 " clip-rule="nonzero"/></clipPath></defs><g clip-path="url(#39dad590ba)"><path fill="#19222e" d="M 187.617188 28.800781 C 96.496094 28.800781 22.617188 102.679688 22.617188 193.800781 C 22.617188 284.921875 96.496094 358.800781 187.617188 358.800781 C 278.738281 358.800781 352.617188 284.921875 352.617188 193.800781 C 352.617188 102.679688 278.738281 28.800781 187.617188 28.800781 Z M 247.59375 220.863281 C 226.609375 252.085938 193.898438 279.890625 192.496094 281.003906 C 191.054688 282.117188 189.347656 282.679688 187.628906 282.679688 C 185.898438 282.679688 184.164062 282.117188 182.75 281.003906 C 181.375 279.890625 148.632812 252.074219 127.652344 220.863281 C 126.03125 218.441406 125.890625 215.347656 127.253906 212.789062 C 128.613281 210.234375 131.28125 208.625 134.195312 208.625 L 161.585938 208.625 C 164.460938 191.476562 165.328125 120.210938 167.320312 117.40625 C 170.25 113.269531 179.722656 110.460938 187.628906 110.460938 C 195.507812 110.460938 203.882812 113.269531 206.796875 117.40625 C 208.789062 120.210938 210.769531 191.476562 213.644531 208.625 L 241.117188 208.625 C 243.992188 208.625 246.671875 210.234375 248.035156 212.789062 C 249.394531 215.347656 249.203125 218.441406 247.59375 220.863281 Z M 247.59375 220.863281 " fill-opacity="1" fill-rule="nonzero"/></g></svg>