<svg xmlns="http://www.w3.org/2000/svg" xmlns:xlink="http://www.w3.org/1999/xlink" width="500" zoomAndPan="magnify" viewBox="0 0 375 374.999991" height="500" preserveAspectRatio="xMidYMid meet" version="1.0"><defs><clipPath id="a6da47dc77"><path d="M 78 140 L 370 140 L 370 284.539062 L 78 284.539062 Z M 78 140 " clip-rule="nonzero"/></clipPath><clipPath id="95bd945614"><path d="M 117 67.039062 L 126 67.039062 L 126 91 L 117 91 Z M 117 67.039062 " clip-rule="nonzero"/></clipPath><clipPath id="8f6edb7ab6"><path d="M 107 154 L 370 154 L 370 284.539062 L 107 284.539062 Z M 107 154 " clip-rule="nonzero"/></clipPath></defs><path fill="#ffd04b" d="M 121.613281 119.46875 C 104.53125 119.46875 88.160156 126.253906 76.113281 138.320312 C 64.039062 150.382812 57.257812 166.746094 57.257812 183.804688 C 57.28125 205.789062 68.53125 226.21875 87.082031 238 C 95.460938 225.699219 109.453125 217.617188 125.476562 217.617188 C 126.601562 217.617188 127.746094 217.703125 128.890625 217.789062 C 129.34375 186.550781 148 159.808594 174.648438 147.527344 C 162.683594 129.996094 142.839844 119.488281 121.613281 119.46875 " fill-opacity="1" fill-rule="nonzero"/><path fill="#ffde59" d="M 130.054688 120.117188 C 98.136719 124.394531 74.320312 151.613281 74.277344 183.804688 C 74.296875 201.25 81.402344 217.941406 93.96875 230.046875 C 102.242188 222.351562 113.253906 217.617188 125.476562 217.617188 C 126.621094 217.617188 127.746094 217.703125 128.890625 217.789062 C 129.34375 186.550781 148 159.808594 174.667969 147.527344 C 164.347656 132.480469 148.152344 122.515625 130.054688 120.117188 " fill-opacity="1" fill-rule="nonzero"/><g clip-path="url(#a6da47dc77)"><path fill="#38b6ff" d="M 365.046875 284.308594 C 368.222656 277.996094 369.863281 271.035156 369.863281 263.988281 C 369.863281 238.953125 349.566406 218.675781 324.558594 218.675781 C 322.097656 218.675781 319.65625 218.890625 317.238281 219.28125 C 309.378906 204.902344 296.140625 194.203125 280.417969 189.554688 C 268.414062 159.808594 239.5625 140.328125 207.492188 140.308594 C 164.519531 140.351562 129.515625 174.832031 128.890625 217.789062 C 127.746094 217.703125 126.601562 217.636719 125.476562 217.617188 C 99.691406 217.617188 79.15625 238.519531 78.789062 264.289062 C 78.59375 278.234375 90.992188 284.914062 90.992188 284.914062 L 365.046875 284.308594 " fill-opacity="1" fill-rule="nonzero"/></g><g clip-path="url(#95bd945614)"><path fill="#ffd42a" d="M 121.222656 67.214844 C 119.085938 67.214844 117.359375 68.964844 117.359375 71.105469 L 117.359375 86.695312 C 117.359375 88.855469 119.085938 90.585938 121.222656 90.585938 L 121.980469 90.585938 C 124.117188 90.585938 125.867188 88.855469 125.867188 86.695312 L 125.867188 71.105469 C 125.867188 68.964844 124.117188 67.214844 121.980469 67.214844 L 121.222656 67.214844 " fill-opacity="1" fill-rule="nonzero"/></g><path fill="#ffd42a" d="M 52.59375 248.3125 C 51.601562 248.335938 50.628906 248.746094 49.917969 249.460938 L 38.882812 260.484375 C 38.167969 261.21875 37.757812 262.214844 37.757812 263.230469 C 37.757812 264.269531 38.167969 265.261719 38.882812 265.976562 L 39.421875 266.515625 C 40.933594 268.03125 43.394531 268.03125 44.90625 266.515625 L 55.941406 255.492188 C 56.65625 254.757812 57.066406 253.761719 57.066406 252.746094 C 57.066406 251.707031 56.65625 250.714844 55.941406 249.976562 L 55.402344 249.460938 C 54.667969 248.722656 53.652344 248.3125 52.59375 248.3125 " fill-opacity="1" fill-rule="nonzero"/><path fill="#ffd42a" d="M 8.886719 179.546875 C 6.726562 179.546875 5 181.296875 5 183.4375 L 5 184.171875 C 5 186.332031 6.726562 188.0625 8.886719 188.0625 L 24.480469 188.0625 C 26.617188 188.0625 28.367188 186.332031 28.367188 184.171875 L 28.367188 183.4375 C 28.367188 181.296875 26.617188 179.546875 24.480469 179.546875 L 8.886719 179.546875 " fill-opacity="1" fill-rule="nonzero"/><path fill="#ffd42a" d="M 42.101562 99.96875 C 41.085938 99.988281 40.136719 100.398438 39.421875 101.089844 L 38.882812 101.632812 C 38.167969 102.367188 37.757812 103.339844 37.757812 104.378906 C 37.757812 105.414062 38.167969 106.410156 38.882812 107.125 L 49.917969 118.148438 C 51.429688 119.660156 53.890625 119.660156 55.402344 118.148438 L 55.941406 117.628906 C 56.65625 116.894531 57.066406 115.921875 57.066406 114.882812 C 57.066406 113.847656 56.65625 112.851562 55.941406 112.136719 L 44.90625 101.089844 C 44.171875 100.355469 43.15625 99.945312 42.101562 99.96875 " fill-opacity="1" fill-rule="nonzero"/><g clip-path="url(#8f6edb7ab6)"><path fill="#aed6f2" d="M 236.324219 154.058594 C 193.347656 154.078125 158.34375 188.582031 157.695312 231.539062 C 156.574219 231.453125 155.429688 231.386719 154.304688 231.363281 C 128.523438 231.363281 107.984375 252.25 107.617188 278.019531 C 107.574219 280.546875 107.984375 282.816406 108.613281 284.871094 L 365.046875 284.308594 C 368.222656 277.996094 369.863281 271.035156 369.863281 263.988281 C 369.863281 251.792969 365.027344 240.769531 357.1875 232.617188 C 355.804688 231.234375 355.804688 231.214844 353.28125 228.878906 C 346.023438 223.625 342.804688 222.480469 336.847656 220.402344 C 332.9375 219.300781 328.8125 218.675781 324.535156 218.675781 C 322.097656 218.675781 319.65625 218.890625 317.238281 219.28125 C 309.378906 204.902344 296.140625 194.203125 280.417969 189.554688 C 274.976562 176.085938 266.058594 164.738281 254.957031 156.328125 C 248.957031 154.855469 242.691406 154.058594 236.324219 154.058594 " fill-opacity="1" fill-rule="nonzero"/></g></svg>