<svg xmlns="http://www.w3.org/2000/svg" xmlns:xlink="http://www.w3.org/1999/xlink" width="500" zoomAndPan="magnify" viewBox="0 0 375 374.999991" height="500" preserveAspectRatio="xMidYMid meet" version="1.0"><defs><clipPath id="be00f3717a"><path d="M 54 48.03125 L 343 48.03125 L 343 256 L 54 256 Z M 54 48.03125 " clip-rule="nonzero"/></clipPath></defs><path fill="#f29d14" d="M 165.84375 246.613281 C 145.160156 246.355469 124.171875 246.335938 104.082031 247.6875 C 83.992188 249.039062 64.667969 251.90625 52.734375 256.46875 C 51.277344 257.027344 49.878906 257.703125 50.605469 258.355469 C 51.429688 259.09375 54.539062 259.433594 57.292969 259.652344 C 84.175781 261.765625 112.621094 261.726562 140.570312 262.214844 C 149.648438 262.375 159.441406 262.671875 166.140625 264.332031 C 154.050781 265.535156 141.964844 266.742188 129.871094 267.945312 C 127.5625 268.175781 124.792969 268.59375 125.074219 269.253906 C 125.363281 269.929688 128.566406 270.15625 131.097656 270.210938 C 141.824219 270.453125 152.554688 270.699219 163.285156 270.941406 C 172.265625 271.148438 182.71875 271.597656 186.976562 273.742188 C 157.902344 275.015625 129.023438 276.605469 100.425781 278.507812 C 88.515625 279.300781 76.203125 280.210938 66.875 282.359375 C 106.753906 282.203125 146.644531 282.382812 186.480469 282.894531 C 191.03125 282.953125 196.847656 283.308594 197.464844 284.523438 C 164.808594 285.277344 132.390625 286.777344 100.675781 289.003906 C 95.8125 289.347656 90.253906 289.878906 88.683594 291.167969 C 114.886719 291.738281 142.375 290.433594 166.78125 293.070312 C 144.3125 294.027344 122.058594 295.347656 100.175781 297.019531 C 97.683594 297.210938 95.101562 297.421875 93.191406 297.890625 C 91.28125 298.363281 90.28125 299.183594 91.621094 299.78125 C 93.082031 300.433594 96.386719 300.53125 99.210938 300.554688 C 120.363281 300.742188 141.515625 300.925781 162.667969 301.097656 C 230.554688 301.664062 300.691406 302.058594 363.71875 295.230469 C 324.40625 292.210938 221.878906 290.246094 213.949219 288.589844 C 218.460938 287.007812 226.039062 286.34375 233.222656 285.863281 C 260.816406 284.027344 289.699219 283.648438 316.648438 281.210938 C 321.46875 280.773438 326.75 280.128906 328.4375 278.835938 C 309.339844 276.070312 284.574219 278.125 265.070312 275.574219 C 260.800781 275.015625 256.410156 273.707031 258.890625 272.617188 C 260.304688 271.996094 263.292969 271.816406 265.957031 271.691406 C 279.8125 271.039062 293.664062 270.386719 307.519531 269.734375 C 287.667969 266.464844 262.414062 267.351562 239.652344 266.054688 C 236.796875 265.894531 233.535156 265.589844 232.613281 264.847656 C 231.144531 263.660156 236.640625 262.757812 241.121094 262.4375 C 275.671875 259.945312 313.703125 261.1875 346.1875 257.152344 C 349.710938 256.714844 353.570312 256.054688 353.945312 255.011719 C 328.753906 252.179688 302.988281 249.707031 276.808594 247.625 C 258.269531 246.148438 242.921875 245.4375 224.535156 247.007812 C 206.828125 248.519531 184.148438 246.835938 165.84375 246.613281 " fill-opacity="1" fill-rule="nonzero"/><g clip-path="url(#be00f3717a)"><path fill="#ea540a" d="M 342.179688 191.144531 C 342.179688 214.410156 336.582031 236.382812 326.648438 255.789062 L 70.234375 255.789062 C 60.308594 236.382812 54.699219 214.410156 54.699219 191.144531 C 54.699219 112.253906 119.058594 48.300781 198.441406 48.300781 C 277.828125 48.300781 342.179688 112.253906 342.179688 191.144531 " fill-opacity="1" fill-rule="nonzero"/></g><path fill="#d64809" d="M 297.742188 87.867188 C 282.027344 88.71875 260.871094 89.792969 233.460938 91.113281 C 221.558594 90.628906 209.644531 90.160156 197.785156 89.597656 C 191.75 89.304688 185.722656 89.003906 179.703125 88.703125 C 225.414062 87.382812 267.480469 86.207031 296.226562 85.570312 L 297.742188 87.867188 " fill-opacity="1" fill-rule="nonzero"/><path fill="#f29d14" d="M 320.101562 113.386719 C 126.578125 115.285156 6.085938 116.210938 284.863281 111.800781 C 295.96875 111.925781 307.082031 112.039062 318.179688 112.171875 L 320.101562 113.386719 " fill-opacity="1" fill-rule="nonzero"/><path fill="#f29d14" d="M 179.703125 161.875 C 176.398438 161.628906 173.09375 161.390625 169.785156 161.160156 C 163.28125 160.707031 156.75 160.3125 150.222656 159.910156 C 47.757812 164.863281 104.808594 163.703125 179.703125 161.875 " fill-opacity="1" fill-rule="nonzero"/><path fill="#d64809" d="M 61.511719 147.582031 C 65.804688 147.425781 70.09375 147.273438 74.394531 147.121094 C 90.304688 146.550781 106.289062 146.015625 122.257812 145.472656 C 368.347656 141.40625 239.324219 144.132812 61.453125 147.757812 L 61.511719 147.582031 " fill-opacity="1" fill-rule="nonzero"/></svg>