<svg xmlns="http://www.w3.org/2000/svg" xmlns:xlink="http://www.w3.org/1999/xlink" width="500" zoomAndPan="magnify" viewBox="0 0 375 374.999991" height="500" preserveAspectRatio="xMidYMid meet" version="1.0"><path fill="#19222e" d="M 194.648438 231.363281 L 182.882812 224.402344 C 182.882812 224.402344 151.261719 194.125 101.519531 193.050781 C 51.777344 191.976562 32.355469 242.835938 29.171875 262.644531 C 29.171875 262.644531 23.933594 236.148438 44.320312 213.492188 C 64.707031 190.839844 88.214844 179.144531 127.425781 190.628906 C 166.636719 202.117188 194.648438 231.363281 194.648438 231.363281 Z M 199.785156 244.914062 C 199.785156 244.914062 204.085938 243.855469 215.964844 265.515625 C 227.84375 287.175781 255.597656 312.121094 284.316406 301.945312 C 313.035156 291.773438 314.234375 255.363281 286.078125 250.226562 C 257.914062 245.089844 255.707031 280.542969 273.113281 284.160156 C 290.515625 287.777344 290.113281 270.699219 286.046875 269.074219 C 281.980469 267.453125 278.972656 270.136719 278.972656 270.136719 L 273.898438 262.007812 C 273.898438 262.007812 283.492188 253.238281 294.699219 266.148438 C 305.90625 279.054688 281.976562 304.339844 267 292.539062 C 252.023438 280.738281 250.480469 269.304688 258.738281 254.847656 C 266.992188 240.390625 293.933594 231.726562 310.121094 254.828125 C 326.308594 277.929688 311.132812 300.722656 293.402344 306.960938 C 275.675781 313.199219 254.59375 313.9375 234.976562 297.789062 C 215.363281 281.640625 206.433594 251.175781 199.785156 244.914062 Z M 181.160156 167.550781 C 135.773438 141.855469 77.542969 148.484375 77.542969 148.484375 L 82.8125 141.851562 C 82.8125 141.851562 148.570312 134.5 192.433594 166.242188 C 236.300781 197.988281 260.179688 193.410156 260.179688 193.410156 C 239.457031 200.5 226.550781 193.246094 181.160156 167.550781 Z M 45.289062 270.878906 C 45.289062 270.878906 66.292969 214.074219 125.027344 222.117188 C 183.765625 230.160156 209.5625 268.621094 190.816406 303.160156 C 172.066406 337.699219 135.855469 337.8125 114.675781 314.796875 C 93.496094 291.785156 110.980469 270.46875 127.605469 263.371094 C 144.226562 256.277344 171.480469 260.910156 174.945312 283.515625 C 178.414062 306.117188 154.761719 315.402344 141.054688 304.933594 C 127.347656 294.472656 131.464844 281.007812 139.539062 277.429688 L 146.050781 284.046875 C 146.050781 284.046875 136.238281 295.109375 150.726562 298.394531 C 165.214844 301.679688 170.992188 281.519531 162.347656 274.742188 C 153.707031 267.964844 130.765625 264.632812 121.023438 279.886719 C 111.285156 295.136719 115.359375 309.246094 136.394531 320.96875 C 157.433594 332.691406 195.070312 303.121094 185.695312 275.320312 C 171.613281 233.5625 103.800781 202.28125 45.289062 270.878906 Z M 259.542969 133.792969 C 259.542969 133.792969 267.921875 128.402344 276.679688 135.640625 C 285.4375 142.878906 277.707031 158.097656 264.082031 152.660156 C 250.449219 147.21875 241.339844 141.921875 245.117188 125.121094 C 248.902344 108.328125 295.578125 104.902344 299.855469 147.382812 C 304.128906 189.863281 224.234375 181.277344 216.554688 138.6875 C 208.875 96.097656 245.996094 73.882812 275.40625 81.457031 C 304.8125 89.035156 359.269531 120.335938 338.03125 174.683594 C 316.792969 229.035156 251.109375 226.949219 212.144531 200.585938 C 173.179688 174.21875 114.925781 147.222656 57.59375 178.433594 C 0.265625 209.644531 8.859375 268.40625 8.859375 268.40625 C 8.859375 268.40625 16.089844 187.664062 94.375 174.804688 C 172.664062 161.945312 250.011719 273.527344 325.882812 211.441406 C 401.75 149.351562 327.023438 75.015625 269.011719 71.417969 C 210.996094 67.820312 176.652344 149.304688 241.59375 179.882812 C 306.53125 210.464844 325.667969 145.203125 296.738281 118.679688 C 267.8125 92.15625 245.242188 103.953125 237.015625 125.632812 C 228.792969 147.316406 267.902344 173.328125 286.453125 154.933594 C 305.007812 136.542969 271.75 114.910156 258.382812 126.257812 L 259.542969 133.792969 " fill-opacity="1" fill-rule="nonzero"/></svg>